<?xml version="1.0" encoding="UTF-8"?>
<!DOCTYPE svg PUBLIC "-//W3C//DTD SVG 1.1//EN" "http://www.w3.org/Graphics/SVG/1.1/DTD/svg11.dtd">
<!-- Creator: CorelDRAW 2019 (64-Bit) -->
<svg xmlns="http://www.w3.org/2000/svg" xml:space="preserve" width="1.69787in" height="0.311665in" version="1.1" style="shape-rendering:geometricPrecision; text-rendering:geometricPrecision; image-rendering:optimizeQuality; fill-rule:evenodd; clip-rule:evenodd"
viewBox="0 0 1705.97 313.15"
 xmlns:xlink="http://www.w3.org/1999/xlink">
 <defs>
  <style type="text/css">
   <![CDATA[
    .fil0 {fill:#FD6A00}
    .fil2 {fill:#FD6A00;fill-rule:nonzero}
    .fil1 {fill:#FEFEFE;fill-rule:nonzero}
   ]]>
  </style>
 </defs>
 <g id="Layer_x0020_1">
  <metadata id="CorelCorpID_0Corel-Layer"/>
  <path class="fil0" d="M294.98 165.88c1.47,-1.88 2.94,-3.87 4.29,-5.75 18.95,-26.58 23.86,-54.11 18.52,-77.13 -3.14,-13.3 -9.63,-25.22 -18.95,-34.65 -9.32,-9.41 -21.35,-16.54 -35.48,-20.09 -28.47,-7.33 -65.41,-0.73 -105.29,27.84l-2.83 2.09 -1.78 -3.03c-3.98,-6.8 -11.1,-12.56 -19.89,-16.85 -12.56,-6.17 -28.57,-9.52 -44.69,-9.63 -16.01,0 -31.92,3.35 -44.49,10.57 -8.16,4.81 -14.97,11.31 -19.05,19.68 -39.36,80.27 16.96,117.22 73.15,154.07l11.51 7.54c21.04,13.19 40.82,26.69 56.41,46.37 5.65,6.8 10.36,14.02 13.92,21.76l0.1 0.32 -5.75 2.72c-3.98,-7.96 -8.69,-14.97 -13.82,-21.35 -14.13,-16.74 -34.02,-30.87 -54.85,-44.69l-8.89 -5.45c-18.52,-11.51 -37.78,-23.34 -55.69,-39.46 -20.83,-18.84 -34.85,-41.76 -39.67,-67.09 -4.39,-23.75 -0.84,-49.51 12.87,-75.88 5.34,-10.47 13.61,-18.43 23.66,-24.18 14.23,-8.26 31.92,-12.03 49.51,-11.93 17.48,0.1 34.95,3.98 48.67,11.1 8.89,4.5 16.22,10.36 21.14,17.37 40.82,-28.26 77.97,-34.75 107.28,-27.21 16.01,4.19 29.72,12.56 40.29,23.86 10.47,11.2 17.9,25.43 21.56,41.23 6.7,29.09 0.73,63.64 -22.3,95.77 -1.47,1.99 -2.94,3.98 -4.5,6.08l-5.75 -1.99 0.73 -1.99 0.01 0 0.04 0.02z"/>
  <path class="fil1" d="M262.85 261.12l0 -22.82 58.61 0 0 53.8c-5.75,5.55 -14.02,10.47 -24.81,14.66 -10.88,4.29 -21.76,6.38 -32.86,6.38 -14.13,0 -26.37,-2.94 -36.95,-8.89 -10.47,-5.97 -18.21,-14.44 -23.55,-25.54 -5.23,-10.99 -7.96,-23.03 -7.96,-36.01 0,-14.13 2.94,-26.48 8.79,-37.47 6.08,-10.99 14.55,-19.47 25.85,-25.22 8.69,-4.5 19.36,-6.8 32.44,-6.8 16.65,0 29.72,3.66 39.14,10.57 9.41,7.12 15.49,16.85 18.21,29.31l-27.21 5.13c-1.78,-6.7 -5.34,-12.03 -10.68,-15.81 -5.23,-3.77 -11.83,-5.75 -19.68,-5.75 -11.83,0 -21.24,3.87 -28.26,11.4 -7.01,7.54 -10.57,18.73 -10.57,33.59 0,16.12 3.56,28.05 10.78,36.01 7.12,8.06 16.33,12.03 27.94,12.03 5.55,0 11.4,-1.04 17.06,-3.24 5.75,-2.31 10.57,-5.02 14.76,-8.16l0 -17.16 -31.08 0 0 0 0.01 0z"/>
  <path class="fil1" d="M402.89 279.86l25.85 4.29c-3.24,9.41 -8.37,16.65 -15.49,21.56 -7.33,4.92 -16.12,7.44 -26.9,7.44 -17.06,0 -29.62,-5.65 -37.78,-16.74 -6.38,-8.79 -9.73,-20.09 -9.73,-33.7 0,-16.22 4.29,-29 12.77,-38.09 8.48,-9.21 19.25,-13.82 32.03,-13.82 14.55,0 25.96,4.81 34.43,14.44 8.37,9.63 12.46,24.38 12.14,44.17l-64.68 0c0.21,7.74 2.2,13.61 6.17,17.9 3.98,4.29 9,6.38 14.86,6.38 4.09,0 7.44,-0.95 10.26,-3.24 2.72,-2.2 4.81,-5.75 6.08,-10.57l0 0 0 0 -0.02 -0.01zm1.57 -26.27c-0.1,-7.54 -2.09,-13.3 -5.65,-17.16 -3.77,-3.98 -8.16,-5.75 -13.39,-5.75 -5.75,0 -10.26,1.99 -14.02,6.08 -3.66,4.19 -5.45,9.73 -5.45,16.85l38.52 0 0 0 0 -0.01z"/>
  <path class="fil1" d="M540.2 310.63l-25.85 0 0 -49.72c0,-10.57 -0.52,-17.48 -1.67,-20.41 -1.04,-3.14 -2.83,-5.65 -5.45,-7.33 -2.41,-1.67 -5.45,-2.51 -9,-2.51 -4.61,0 -8.59,1.04 -12.14,3.66 -3.56,2.41 -6.08,5.65 -7.44,9.73 -1.26,3.98 -1.99,11.51 -1.99,22.39l0 44.17 -25.85 0 0 -97.76 23.97 0 0 14.34c8.59,-10.99 19.36,-16.44 32.44,-16.44 5.65,0 10.99,1.04 15.7,3.14 4.71,1.99 8.26,4.71 10.68,7.85 2.41,3.14 4.19,6.8 5.13,10.88 1.04,3.98 1.47,9.84 1.47,17.37l0 60.6 0 0 0.01 0.01z"/>
  <path class="fil1" d="M622.99 279.86l25.65 4.29c-3.24,9.41 -8.37,16.65 -15.59,21.56 -7.22,4.92 -16.12,7.44 -26.79,7.44 -16.96,0 -29.62,-5.65 -37.78,-16.74 -6.49,-8.79 -9.52,-20.09 -9.52,-33.7 0,-16.22 4.09,-29 12.46,-38.09 8.59,-9.21 19.36,-13.82 32.14,-13.82 14.55,0 25.96,4.81 34.43,14.44 8.37,9.63 12.35,24.38 12.14,44.17l-64.68 0c0.1,7.74 2.31,13.61 6.28,17.9 3.87,4.29 8.89,6.38 14.76,6.38 4.09,0 7.54,-0.95 10.26,-3.24 2.72,-2.2 4.81,-5.75 6.28,-10.57l0 0 -0.01 0 -0.03 -0.01zm1.36 -26.27c-0.1,-7.54 -2.09,-13.3 -5.65,-17.16 -3.77,-3.98 -8.16,-5.75 -13.39,-5.75 -5.75,0 -10.36,1.99 -14.02,6.08 -3.66,4.19 -5.45,9.73 -5.45,16.85l38.52 0 0 0 0 -0.01z"/>
  <path class="fil1" d="M695.84 310.63l-25.74 0 0 -97.76 23.97 0 0 13.92c3.98,-6.6 7.64,-10.88 11.1,-12.87 3.24,-2.09 7.01,-3.14 11.1,-3.14 5.86,0 11.62,1.67 17.16,4.81l-7.96 22.6c-4.5,-2.72 -8.48,-4.19 -12.35,-4.19 -3.56,0 -6.7,1.04 -9.11,3.03 -2.51,1.99 -4.61,5.55 -5.97,10.68 -1.47,5.34 -2.2,16.12 -2.2,32.86l0 30.04 0 0 0 0 -0.01 0.01z"/>
  <path class="fil1" d="M763.66 243.01l-23.23 -4.09c2.51,-9.63 7.12,-16.65 13.5,-21.35 6.49,-4.5 16.01,-6.8 28.68,-6.8 11.62,0 20.09,1.47 25.85,4.09 5.55,2.72 9.52,6.17 11.93,10.47 2.31,4.19 3.46,11.83 3.46,23.13l-0.42 30.15c0,8.48 0.42,14.97 1.26,18.95 0.73,4.09 2.31,8.59 4.61,13.08l-25.65 0c-0.63,-1.67 -1.47,-4.09 -2.51,-7.54 -0.42,-1.57 -0.63,-2.51 -0.84,-3.03 -4.39,4.5 -9.11,7.64 -14.13,9.73 -5.13,2.31 -10.36,3.24 -16.12,3.24 -9.95,0 -17.9,-2.61 -23.66,-8.06 -5.86,-5.45 -8.69,-12.46 -8.69,-20.72 0,-5.55 1.26,-10.36 3.98,-14.86 2.51,-4.29 6.28,-7.54 11.1,-9.84 4.71,-2.31 11.62,-4.29 20.61,-5.97 11.93,-2.31 20.41,-4.39 24.91,-6.38l0 -2.61c0,-5.02 -1.15,-8.69 -3.56,-10.88 -2.51,-2.09 -7.12,-3.03 -13.92,-3.03 -4.61,0 -8.16,0.84 -10.88,2.61 -2.61,1.88 -4.61,5.23 -6.28,9.73l0 0 0.01 0 -0 -0.01zm34.65 20.93c-3.24,1.04 -8.37,2.51 -15.7,3.87 -7.12,1.57 -11.83,3.14 -13.92,4.61 -3.46,2.41 -5.13,5.45 -5.13,9.11 0,3.56 1.36,6.7 4.09,9.32 2.61,2.72 5.97,3.98 10.26,3.98 4.61,0 9.21,-1.57 13.3,-4.61 3.14,-2.2 5.34,-5.13 6.17,-8.48 0.63,-2.2 0.95,-6.49 0.95,-12.56l0 -5.23 0 0 -0.02 -0.01z"/>
  <path class="fil1" d="M893.97 212.88l0 20.61 -17.69 0 0 39.46c0,8.16 0.1,12.77 0.52,14.13 0.32,1.36 1.04,2.41 2.31,3.35 1.15,0.84 2.51,1.26 4.29,1.26 2.41,0 5.97,-0.84 10.57,-2.61l2.09 20.2c-5.97,2.51 -12.87,3.87 -20.41,3.87 -4.71,0 -8.79,-0.73 -12.56,-2.31 -3.66,-1.57 -6.38,-3.77 -8.26,-6.17 -1.67,-2.61 -2.83,-5.86 -3.56,-10.15 -0.52,-2.94 -0.84,-9.11 -0.84,-18.21l0 -42.8 -11.83 0 0 -20.61 11.83 0 0 -19.36 25.85 -15.29 0 34.65 17.69 0 0 0 0 -0.01 -0 -0.01z"/>
  <path class="fil1" d="M912.08 199.69l0 -23.86 25.85 0 0 23.86 -25.85 0zm0 110.94l0 -97.76 25.85 0 0 97.76 -25.85 0z"/>
  <path class="fil1" d="M958.44 260.6c0,-8.59 1.99,-16.96 6.28,-25.02 4.29,-8.16 10.26,-14.13 18,-18.43 7.85,-4.29 16.33,-6.38 25.96,-6.38 14.86,0 26.9,4.81 36.32,14.44 9.41,9.63 14.13,21.76 14.13,36.53 0,14.76 -4.71,27.11 -14.23,36.73 -9.52,9.73 -21.56,14.66 -35.9,14.66 -9,0 -17.58,-2.09 -25.74,-6.08 -8.16,-4.09 -14.23,-9.95 -18.52,-17.8 -4.29,-7.85 -6.28,-17.48 -6.28,-28.68l0 0 0 0.01 -0.02 0.01zm26.48 1.36c0,9.73 2.31,17.16 6.9,22.3 4.61,5.13 10.26,7.74 16.96,7.74 6.7,0 12.46,-2.61 16.96,-7.74 4.61,-5.13 6.9,-12.67 6.9,-22.5 0,-9.63 -2.31,-16.85 -6.9,-22.19 -4.5,-5.13 -10.26,-7.64 -16.96,-7.64 -6.7,0 -12.35,2.51 -16.96,7.64 -4.61,5.34 -6.9,12.77 -6.9,22.39z"/>
  <path class="fil1" d="M1168.5 310.63l-25.85 0 0 -49.72c0,-10.57 -0.52,-17.48 -1.67,-20.41 -1.15,-3.14 -2.94,-5.65 -5.45,-7.33 -2.41,-1.67 -5.55,-2.51 -9,-2.51 -4.61,0 -8.59,1.04 -12.14,3.66 -3.66,2.41 -6.17,5.65 -7.44,9.73 -1.47,3.98 -1.99,11.51 -1.99,22.39l0 44.17 -25.85 0 0 -97.76 23.97 0 0 14.34c8.59,-10.99 19.25,-16.44 32.44,-16.44 5.65,0 10.78,1.04 15.7,3.14 4.71,1.99 8.26,4.71 10.68,7.85 2.41,3.14 4.19,6.8 5.13,10.88 1.04,3.98 1.47,9.84 1.47,17.37l0 60.6 0 0 0.01 0.01z"/>
  <polygon class="fil2" points="1195.61,310.63 1195.61,176.87 1222.82,176.87 1222.82,287.81 1290.44,287.81 1290.44,310.63 "/>
  <path class="fil2" d="M1303.72 260.6c0,-8.59 1.99,-16.96 6.28,-25.02 4.29,-8.16 10.26,-14.13 18,-18.43 7.74,-4.29 16.44,-6.38 25.96,-6.38 14.86,0 27.01,4.81 36.43,14.44 9.41,9.63 14.13,21.76 14.13,36.53 0,14.76 -4.71,27.11 -14.34,36.73 -9.52,9.73 -21.46,14.66 -36.1,14.66 -8.79,0 -17.37,-2.09 -25.54,-6.08 -8.06,-4.09 -14.23,-9.95 -18.52,-17.8 -4.29,-7.85 -6.28,-17.48 -6.28,-28.68l0 0 0 0.01 -0.02 0.01zm26.59 1.36c0,9.73 2.31,17.16 6.8,22.3 4.61,5.13 10.26,7.74 17.06,7.74 6.7,0 12.35,-2.61 16.96,-7.74 4.5,-5.13 6.8,-12.67 6.8,-22.5 0,-9.63 -2.31,-16.85 -6.8,-22.19 -4.61,-5.13 -10.26,-7.64 -16.96,-7.64 -6.8,0 -12.46,2.51 -17.06,7.64 -4.5,5.34 -6.8,12.77 -6.8,22.39z"/>
  <path class="fil2" d="M1451.71 310.63l-39.36 -97.76 27.11 0 18.43 49.82 5.23 16.74c1.47,-4.19 2.31,-7.01 2.72,-8.26 0.84,-2.94 1.67,-5.55 2.72,-8.48l18.73 -49.82 26.48 0 -38.83 97.76 -23.23 0 0 0 0 0 0 0z"/>
  <path class="fil2" d="M1586.11 279.86l25.85 4.29c-3.24,9.41 -8.59,16.65 -15.7,21.56 -7.12,4.92 -16.12,7.44 -26.79,7.44 -17.06,0 -29.62,-5.65 -37.68,-16.74 -6.49,-8.79 -9.73,-20.09 -9.73,-33.7 0,-16.22 4.29,-29 12.67,-38.09 8.48,-9.21 19.15,-13.82 32.14,-13.82 14.55,0 25.96,4.81 34.43,14.44 8.37,9.63 12.35,24.38 11.93,44.17l-64.58 0c0.21,7.74 2.31,13.61 6.28,17.9 3.98,4.29 9,6.38 14.76,6.38 4.09,0 7.44,-0.95 10.15,-3.24 2.83,-2.2 4.92,-5.75 6.28,-10.57l0 0 0 0 -0.02 -0.01zm1.57 -26.27c-0.32,-7.54 -2.09,-13.3 -5.86,-17.16 -3.66,-3.98 -8.06,-5.75 -13.39,-5.75 -5.55,0 -10.26,1.99 -13.92,6.08 -3.56,4.19 -5.45,9.73 -5.34,16.85l38.52 0 0 0 -0.01 -0.01z"/>
  <path class="fil1" d="M1657.17 95.63c8.28,0 16.39,2.08 24.12,6.4 7.73,4.15 13.56,9.99 18.08,18.08 4.34,7.73 6.59,15.83 6.59,24.31 0,8.47 -2.08,16.77 -6.4,24.5 -4.34,7.73 -10.36,13.57 -18.08,17.9 -7.92,4.34 -15.84,6.4 -24.31,6.4 -8.47,0 -16.77,-2.08 -24.5,-6.4 -7.53,-4.34 -13.56,-10.17 -17.9,-17.9 -4.34,-7.73 -6.4,-16.01 -6.4,-24.5 0,-8.49 2.08,-16.58 6.4,-24.31 4.7,-8.11 10.55,-13.95 18.27,-18.08 7.73,-4.34 15.63,-6.4 24.12,-6.4l0 0 0 0 0.01 0zm0 9.8c-6.78,0 -13.18,1.52 -19.21,4.9 -6.22,3.39 -11.12,8.28 -14.7,14.32 -3.58,6.4 -5.46,12.81 -5.46,19.78 0,6.97 1.89,13.38 5.46,19.6 3.39,6.22 8.28,11.11 14.31,14.7 6.22,3.2 12.81,5.09 19.6,5.09 6.97,0 13.38,-1.89 19.6,-5.09 6.04,-3.58 10.93,-8.49 14.5,-14.7 3.39,-6.22 5.08,-12.62 5.08,-19.6 0,-6.97 -1.69,-13.37 -5.28,-19.78 -3.58,-6.04 -8.47,-10.93 -14.7,-14.32 -6.22,-3.39 -12.62,-4.9 -19.22,-4.9l0 0 0 0 0.03 0zm-22.04 65.19l0 -51.81 10.55 0c9.61,0 15.26,0.19 16.39,0.19 3.58,0.38 6.22,1.14 8.11,2.07 1.89,1.13 3.39,2.82 4.9,4.9 1.33,2.27 1.89,4.91 1.89,7.53 0,3.77 -1.33,6.78 -3.58,9.42 -2.63,2.82 -5.84,4.34 -10.35,5.08 1.52,0.56 2.82,1.14 3.58,1.88 0.94,0.75 2.08,2.08 3.58,4.15 0.38,0.38 1.69,2.44 3.96,6.04l5.84 10.55 -13 0 -4.15 -8.49c-2.82,-5.65 -5.46,-9.23 -7.16,-10.74 -2.07,-1.31 -4.34,-2.07 -7.15,-2.07l-2.82 0 0 21.29 -10.55 0 0 0 -0.01 0 -0.02 0.01zm10.56 -29.39l4.34 0c5.84,0 9.8,-0.38 11.31,-0.95 1.31,-0.38 2.44,-1.14 3.2,-2.27 0.95,-1.33 1.31,-2.44 1.31,-4.15 0,-1.14 -0.38,-2.44 -1.31,-3.58 -0.76,-1.31 -1.89,-2.07 -3.58,-2.44 -1.52,-0.55 -5.08,-0.55 -10.93,-0.55l-4.34 0 0 13.94 0 0 -0 -0z"/>
 </g>
</svg>
